<svg height="24" viewBox="0 0 24 24" width="24" xmlns="http://www.w3.org/2000/svg"><path d="m20.45175 20.45025h-3.5595v-5.5695c0-1.32825-.0225-3.03675-1.8495-3.03675-1.85175 0-2.1345 1.4475-2.1345 2.9415v5.66475h-3.55575v-11.45325h3.4125v1.566h.04875c.47475-.90075 1.63575-1.85025 3.3675-1.85025 3.6045 0 4.2705 2.3715 4.2705 5.45625zm-15.1125-13.01775c-1.14375 0-2.0655-.92475-2.0655-2.06475 0-1.13925.92175-2.064 2.0655-2.064 1.1385 0 2.06325.92475 2.06325 2.064 0 1.14-.92475 2.06475-2.06325 2.06475zm1.7805 13.01775h-3.56325v-11.45325h3.56325zm15.8805-20.45025h-21.99975c-.55275 0-1.0005.44775-1.0005.99975v21.99975c0 .55275.44775 1.0005 1.0005 1.0005h21.99975c.552 0 .99975-.44775.99975-1.0005v-21.99975c0-.552-.44775-.99975-.99975-.99975z" fill="#0077b5" fill-rule="evenodd"/></svg>